<?xml version="1.0" encoding="UTF-8" standalone="no"?>
<!-- Created with Inkscape (http://www.inkscape.org/) -->

<svg
   version="1.1"
   id="svg1"
   width="1024"
   height="1024"
   viewBox="0 0 1024 1024"
   sodipodi:docname="business.svg"
   inkscape:version="1.3.2 (091e20e, 2023-11-25, custom)"
   xmlns:inkscape="http://www.inkscape.org/namespaces/inkscape"
   xmlns:sodipodi="http://sodipodi.sourceforge.net/DTD/sodipodi-0.dtd"
   xmlns:xlink="http://www.w3.org/1999/xlink"
   xmlns="http://www.w3.org/2000/svg"
   xmlns:svg="http://www.w3.org/2000/svg">
  <defs
     id="defs1" />
  <g
     inkscape:groupmode="layer"
     inkscape:label="Image"
     id="g1">
    <path
       fill="currentColor"
       d="m 458.07519,868.98169 c -7.58707,-1.60678 -14.28067,-4.07863 -22.50392,-8.31036 -6.9228,-3.56251 -11.01439,-7.05344 -32.25,-27.51561 -13.3767,-12.8895 -24.31748,-23.71001 -24.31286,-24.04559 C 379.02281,808.0664 400.57252,787 401.62581,787 c 0.54786,0 10.65111,9.82008 22.45168,21.8224 18.82928,19.15121 22.30848,22.24196 28.42345,25.25 6.59549,3.24441 7.52989,3.4276 17.48347,3.4276 9.42175,0 11.1364,-0.29069 16.4837,-2.79453 7.66226,-3.58781 15.31606,-9.38511 20.1028,-15.2267 l 3.78283,-4.61644 -43.07238,-43.18117 c -23.6898,-23.74964 -43.56939,-44.16408 -44.17686,-45.36542 -1.70487,-3.37156 -1.30388,-9.47649 0.85502,-13.01719 3.39571,-5.56916 10.18881,-7.69753 16.72538,-5.2403 1.54831,0.58204 28.2401,26.43266 59.3151,57.44583 50.06471,49.96508 57.18339,56.70399 62.5,59.1657 11.3853,5.27164 26.14218,4.0001 37.61273,-3.24094 7.84902,-4.95487 15.70753,-14.39504 18.42349,-22.13152 L 619.86931,795.5 548.49022,724 c -39.51362,-39.58056 -71.85031,-72.75673 -72.43465,-74.3151 -4.71518,-12.5749 6.70287,-23.88588 18.24409,-18.07301 1.76019,0.88654 36.1694,34.52404 76.46491,74.75 55.39062,55.295 74.0539,73.34736 76.5,73.99582 5.53664,1.46776 15.65254,-0.0423 22.34104,-3.33508 11.33668,-5.58103 21.56283,-18.67663 23.04852,-29.51589 l 0.64323,-4.69284 -81.54828,-81.65695 c -44.85155,-44.91132 -82.26846,-83.0971 -83.14868,-84.85729 -3.15841,-6.31591 -1.05,-13.99329 4.91656,-17.90273 3.01076,-1.97272 10.1212,-2.16884 13.62695,-0.37585 1.29585,0.66275 39.26239,38.05413 84.37009,83.09196 L 713.528,723 h 5.07628 c 7.14363,0 15.6098,-4.44683 22.78206,-11.96619 10.00541,-10.48963 14.90829,-25.37966 12.58164,-38.21039 -0.60151,-3.3171 -0.85157,-6.27317 -0.55569,-6.56904 0.29587,-0.29588 4.26165,0.2012 8.81283,1.10461 4.55118,0.90341 11.73481,1.64221 15.96361,1.64179 l 7.68872,-7.8e-4 0.69605,4.64155 c 0.88621,5.90968 -0.10578,17.76479 -2.145,25.63436 -3.44877,13.30925 -11.00142,26.14358 -21.08832,35.8357 -10.23691,9.83627 -18.47845,14.49012 -31.5305,17.80473 l -7.20759,1.83038 -2.15202,6.37664 C 712.07343,791.87019 685.78479,811.71698 655,812.04525 l -7.5,0.08 -3.27767,6.68739 c -8.93454,18.22903 -29.32383,33.98746 -49.91974,38.58185 -8.35212,1.86313 -24.32978,2.10777 -31.10977,0.47633 C 556.00915,856.14222 543.1757,849.8274 536.5,844.73635 l -6,-4.57575 -5.94052,5.96956 c -10.05545,10.10461 -23.11575,17.79995 -36.20694,21.33373 -7.16437,1.93393 -24.26466,2.79116 -30.27735,1.5178 z M 301.61774,820.8877 c -11.5579,-2.71334 -23.88831,-13.72282 -52.04397,-46.46859 -34.44306,-40.05817 -112.71878,-141.19952 -117.69052,-152.06986 -5.6979,-12.45802 -5.75912,-26.34591 -0.16862,-38.25399 3.72353,-7.93134 33.11428,-37.31702 41.8884,-41.88118 13.85053,-7.20482 30.60047,-8.1151 42.9537,-2.33433 3.65069,1.70836 8.40366,4.50485 10.56214,6.2144 4.3018,3.40709 11.36447,12.85382 14.88224,19.90585 1.2346,2.475 2.31841,4.5915 2.40847,4.70332 0.09,0.11183 3.20521,-0.90067 6.92257,-2.25 12.65864,-4.59484 25.85132,-3.01232 37.46524,4.49412 18.29136,11.82228 24.97267,38.85006 13.70741,55.45035 -1.37764,2.03006 -2.5048,3.88469 -2.5048,4.12139 0,0.2367 3.0375,0.40337 6.75,0.37038 8.60738,-0.0765 11.22469,0.57709 19.52475,4.87561 16.54838,8.57025 26.89544,28.75228 23.71969,46.26546 -1.21017,6.67373 -3.69125,12.37849 -7.63873,17.56376 -1.29564,1.70192 -2.35378,3.27692 -2.35142,3.5 0.002,0.22309 3.72481,0.40561 8.27211,0.40561 7.33126,0 9.0263,0.37346 14.96363,3.29687 16.18847,7.97085 24.84087,24.35144 21.81277,41.29564 -2.31689,12.96457 -5.22042,17.0965 -28.88896,41.11121 -11.80887,11.98157 -23.53913,23.09758 -26.06725,24.70222 -8.50903,5.40085 -18.92922,7.22363 -28.47885,4.98176 z m 469.56704,-181.38042 -10.31522,-1.38342 -15.52673,-14.81193 c -8.53971,-8.14656 -18.97286,-17.92435 -23.18479,-21.72842 -4.21192,-3.80408 -27.8935,-25.17908 -52.62573,-47.5 -24.73223,-22.32093 -49.93223,-45.10723 -56,-50.63623 C 556.55205,451.52648 536.84611,434 535.44912,434 c -0.90137,0 -20.15866,5.38378 -42.79398,11.96395 -22.63533,6.58017 -44.53014,12.73517 -48.65514,13.67777 -10.50482,2.40044 -37.78861,2.43083 -47.32891,0.0527 -29.43046,-7.33616 -55.79139,-30.21254 -59.15072,-51.33181 -1.2615,-7.93074 2.88789,-16.4539 9.73387,-19.99409 1.65881,-0.85781 12.96771,-4.64047 25.13089,-8.40593 28.55,-8.83847 49.96707,-16.19459 91.46162,-31.41429 42.87352,-15.72549 56.94345,-19.56861 71.51372,-19.53353 9.44336,0.0227 15.18018,1.75224 58.16383,17.53495 21.98664,8.07304 54.76881,20.0207 72.84929,26.55037 l 32.87358,11.87213 30.12642,-8.54689 C 745.94311,371.72454 770.075,364.96799 783,361.41077 c 12.925,-3.55721 23.9832,-6.63531 24.57378,-6.84021 1.11089,-0.38542 13.30339,19.97606 27.35757,45.68716 18.53883,33.91546 40.75414,80.9131 65.12199,137.76896 17.28185,40.3226 21.1832,50.66282 19.97018,52.92937 -0.54232,1.01334 -4.48197,5.0648 -8.75478,9.00324 -20.01506,18.44879 -46.5386,31.77967 -75.76874,38.0818 -12.95682,2.79354 -48.39427,3.60141 -64.31522,1.46619 z M 122.32376,544.12545 C 98.986226,516.90094 90.907563,472.73784 100.01389,422.16557 111.43675,358.72841 149.78116,299.05413 207.37598,255.0811 l 9.71709,-7.41889 29.20347,9.28241 C 299.21861,273.76606 353.00976,290.97933 385.5,301.49 c 17.6,5.69365 37.175,11.99274 43.5,13.998 6.325,2.00525 13.71103,4.35137 16.41341,5.2136 l 4.9134,1.56768 -10.4134,3.26634 c -5.72738,1.79649 -18.41594,5.7905 -28.1968,8.87558 l -17.78339,5.60924 -38.71661,-12.57147 C 273.55856,300.93421 251.98855,293.95279 236.5952,289.05557 l -15.9048,-5.05994 -5.18462,3.99991 c -6.87659,5.30525 -24.53316,23.51545 -32.48585,33.50446 -10.63223,13.35466 -21.77088,31.14725 -30.0493,48 -17.19874,35.01222 -24.23533,62.72142 -24.37866,96 -0.0535,12.42524 0.33825,17.56396 1.75345,23 2.2528,8.65337 10.21615,25.36853 15.15928,31.81946 l 3.69299,4.81947 -4.31072,3.68053 c -5.00446,4.27285 -7.58613,6.81817 -14.17704,13.97742 -2.63454,2.86172 -4.88454,5.16503 -5,5.11847 -0.11546,-0.0466 -1.63924,-1.75201 -3.38617,-3.7899 z"
       id="path1" />
  </g>
</svg>
